<?xml version="1.0" encoding="utf-8"?><svg version="1.1" xmlns="http://www.w3.org/2000/svg" xmlns:xlink="http://www.w3.org/1999/xlink" x="0px" y="0px" viewBox="0 0 1000 1000" enable-background="new 0 0 1000 1000" xml:space="preserve"><g><path d="M656.5,927.4V990h-313v-62.6c0-34.6,28-62.6,62.6-62.6h62.6V452.2c-36.4-13-62.6-47.3-62.6-88.1c0-51.8,42.1-93.9,93.9-93.9c51.8,0,93.9,42.1,93.9,93.9c0,40.8-26.3,75.2-62.6,88.1v412.6h62.6C628.5,864.8,656.5,892.8,656.5,927.4z M345.1,518.9l22,22.1l44.4-44.3l-22.1-22.1c-61-61-61-160.3,0-221.3l22.1-22.1L367.2,187l-22.1,22.1C259.6,294.5,259.6,433.5,345.1,518.9z M300.8,164.9l22.1-22.1l-44.3-44.3l-22.1,22.1c-134.2,134.2-134.2,352.6,0,486.8l22.1,22.1l44.3-44.2l-22.1-22.1C190.9,453.4,190.9,274.7,300.8,164.9z M212.3,76.4l22.1-22.1L190.2,10l-22.1,22.1c-183,183-183,480.8,0,664l22.1,22.1l44.3-44.2l-22.1-22.1C53.6,493.2,53.6,234.9,212.3,76.4z M610.6,474.7l-22.1,22.1l44.4,44.3l22-22.1c85.5-85.5,85.5-224.5,0-309.8L632.8,187l-44.2,44.2l22.1,22.1C671.7,314.4,671.7,413.7,610.6,474.7z M743.4,120.6l-22.1-22.1L677,142.8l22.1,22.1c109.8,109.8,109.8,288.5,0,398.3L677,585.3l44.3,44.3l22.1-22.1C877.6,473.2,877.6,254.9,743.4,120.6z M831.9,32.1L809.8,10l-44.3,44.3l22.1,22.1c158.6,158.6,158.6,416.6,0,575.4L765.5,674l44.3,44.2l22.1-22.1C1014.9,513,1014.9,215,831.9,32.1z"/></g></svg>