<svg width="67" height="47" viewBox="0 0 67 47" fill="none" xmlns="http://www.w3.org/2000/svg">
<g clip-path="url(#clip0_2592_987)">
<path fill-rule="evenodd" clip-rule="evenodd" d="M56.582 18.4163L62.5194 21.3219L56.2546 20.9857L48.6982 22.433L56.582 18.4163Z" stroke="white" stroke-width="0.740604" stroke-linecap="round" stroke-linejoin="round"/>
<path fill-rule="evenodd" clip-rule="evenodd" d="M16.0044 27.7288L21.5942 29.6706L21.9959 33.4013L19.9222 32.1176L16.0044 27.7288Z" stroke="white" stroke-width="0.740604" stroke-linecap="round"/>
<path fill-rule="evenodd" clip-rule="evenodd" d="M22.6798 21.2882L15.9973 27.7727L10.5415 23.0081L22.6798 21.2882Z" stroke="white" stroke-width="0.740604" stroke-linecap="round" stroke-linejoin="round"/>
<path fill-rule="evenodd" clip-rule="evenodd" d="M13.7849 13.8873L21.5119 15.3491L9.18328 22.1685L4.39404 15.6019L13.7849 13.8873Z" stroke="white" stroke-width="0.740604" stroke-linecap="round" stroke-linejoin="round"/>
<path fill-rule="evenodd" clip-rule="evenodd" d="M34.6533 17.9497L22.6794 21.2876L10.5582 23.0231L9.15723 22.1729L21.5117 15.3488L34.6533 17.9497Z" stroke="white" stroke-width="0.740604" stroke-linecap="round" stroke-linejoin="round"/>
<path fill-rule="evenodd" clip-rule="evenodd" d="M23.0645 8.26831L21.5119 15.3492L13.7808 13.8782L23.0645 8.26831Z" stroke="white" stroke-width="0.740604" stroke-linecap="round" stroke-linejoin="round"/>
<path fill-rule="evenodd" clip-rule="evenodd" d="M23.0645 8.26806L13.7808 13.878L15.2956 8.11377L23.0645 8.26806Z" stroke="white" stroke-width="0.740604" stroke-linecap="round" stroke-linejoin="round"/>
<path fill-rule="evenodd" clip-rule="evenodd" d="M20.5854 3.04089L25.5295 6.3254L29.94 11.4733L23.0645 8.26842L20.5854 3.04089Z" stroke="white" stroke-width="0.740604" stroke-linecap="round" stroke-linejoin="round"/>
<path fill-rule="evenodd" clip-rule="evenodd" d="M20.5852 3.0409L23.0643 8.26843L14.8022 0.423706L20.5852 3.0409Z" stroke="white" stroke-width="0.740604" stroke-linecap="round" stroke-linejoin="round"/>
<path fill-rule="evenodd" clip-rule="evenodd" d="M15.2954 8.11414L14.8022 0.423706L23.0643 8.26843L15.2954 8.11414Z" stroke="white" stroke-width="0.740604" stroke-linecap="round" stroke-linejoin="round"/>
<path fill-rule="evenodd" clip-rule="evenodd" d="M29.9398 11.4732L21.5117 15.3492L23.0643 8.26831L29.9398 11.4732Z" stroke="white" stroke-width="0.740604" stroke-linecap="round" stroke-linejoin="round"/>
<path fill-rule="evenodd" clip-rule="evenodd" d="M29.9398 11.4734L38.4064 14.6445L34.6532 17.9503L21.5117 15.3493L29.9398 11.4734Z" stroke="white" stroke-width="0.740604" stroke-linecap="round" stroke-linejoin="round"/>
<path fill-rule="evenodd" clip-rule="evenodd" d="M38.4065 14.6442L51.6302 13.8307L42.3408 20.4231L34.6533 17.95L38.4065 14.6442Z" stroke="white" stroke-width="0.740604" stroke-linecap="round" stroke-linejoin="round"/>
<path fill-rule="evenodd" clip-rule="evenodd" d="M51.6304 13.8307L61.2311 15.174L58.1376 17.3052L54.1383 16.1943L51.6304 13.8307Z" stroke="white" stroke-width="0.740604" stroke-linecap="round" stroke-linejoin="round"/>
<path fill-rule="evenodd" clip-rule="evenodd" d="M38.4065 14.6438L29.9399 11.4727L47.2106 10.7637L38.4065 14.6438Z" stroke="white" stroke-width="0.740604" stroke-linecap="round" stroke-linejoin="round"/>
<path fill-rule="evenodd" clip-rule="evenodd" d="M47.1878 10.7546L54.6578 12.0144L51.6305 13.8307L38.4067 14.6442L47.1878 10.7546Z" stroke="white" stroke-width="0.740604" stroke-linecap="round" stroke-linejoin="round"/>
<path fill-rule="evenodd" clip-rule="evenodd" d="M61.5595 13.2253L64.5642 13.779L66.5937 15.264L61.231 15.174L61.5595 13.2253Z" stroke="white" stroke-width="0.740604" stroke-linecap="round" stroke-linejoin="round"/>
<path fill-rule="evenodd" clip-rule="evenodd" d="M62.4746 21.3254L56.5327 18.3914L61.2309 15.174L62.4746 21.3254Z" stroke="white" stroke-width="0.740604" stroke-linecap="round" stroke-linejoin="round"/>
<path fill-rule="evenodd" clip-rule="evenodd" d="M54.6577 12.0144L61.5597 13.2253L61.2311 15.174L51.6304 13.8307L54.6577 12.0144Z" stroke="white" stroke-width="0.740604" stroke-linecap="round" stroke-linejoin="round"/>
<path fill-rule="evenodd" clip-rule="evenodd" d="M62.524 21.3254C62.524 21.3254 61.5665 16.7638 61.231 15.174C62.645 15.1917 66.5937 15.264 66.5937 15.264L62.524 21.3254Z" stroke="white" stroke-width="0.740604" stroke-linecap="round" stroke-linejoin="round"/>
<path fill-rule="evenodd" clip-rule="evenodd" d="M56.5328 18.3915L54.1382 16.1697L58.1374 17.3053L56.5328 18.3915Z" fill="white" stroke="white" stroke-width="0.740604" stroke-linecap="round" stroke-linejoin="round"/>
<path fill-rule="evenodd" clip-rule="evenodd" d="M50.6641 26.7694L49.5532 24.8108L52.2273 25.0665L50.6641 26.7694Z" fill="white"/>
<path fill-rule="evenodd" clip-rule="evenodd" d="M51.74 28.4644L50.417 26.7163L53.7929 26.2515L51.74 28.4644Z" fill="white"/>
<path fill-rule="evenodd" clip-rule="evenodd" d="M53.8625 29.7851L51.7681 28.2335L55.5353 27.2695L53.8625 29.7851Z" fill="white"/>
<path fill-rule="evenodd" clip-rule="evenodd" d="M55.894 31.2955L53.6909 29.6931L57.509 28.1168L55.894 31.2955Z" fill="white"/>
<path fill-rule="evenodd" clip-rule="evenodd" d="M54.8408 23.6663L54.7959 21.5761L57.5727 21.1409L54.8408 23.6663Z" fill="white"/>
<path fill-rule="evenodd" clip-rule="evenodd" d="M53.0139 23.4949L52.5288 21.8189L55.196 21.4948L53.0139 23.4949Z" fill="white"/>
<path fill-rule="evenodd" clip-rule="evenodd" d="M56.9556 23.9901L57.0963 21.2032L59.68 21.3059L56.9556 23.9901Z" fill="white"/>
<path fill-rule="evenodd" clip-rule="evenodd" d="M58.9736 24.7645L59.3921 21.4839L62.8309 21.5604L58.9736 24.7645Z" fill="white"/>
<path fill-rule="evenodd" clip-rule="evenodd" d="M48.7367 22.4662L42.3638 20.4325L51.6305 13.8307L48.7367 22.4662Z" stroke="white" stroke-width="0.740604" stroke-linecap="round" stroke-linejoin="round"/>
<path fill-rule="evenodd" clip-rule="evenodd" d="M48.7271 22.4889L51.6302 13.8307L56.5328 18.3914L48.7271 22.4889Z" stroke="white" stroke-width="0.740604" stroke-linecap="round" stroke-linejoin="round"/>
<path fill-rule="evenodd" clip-rule="evenodd" d="M43.4785 24.8255L48.7363 22.4659L49.3446 24.9909L43.4785 24.8255Z" stroke="white" stroke-width="0.740604" stroke-linecap="round" stroke-linejoin="round"/>
<path fill-rule="evenodd" clip-rule="evenodd" d="M48.7364 22.4663L43.4786 24.8258L34.6533 17.9501L48.7364 22.4663Z" stroke="white" stroke-width="0.740604" stroke-linecap="round" stroke-linejoin="round"/>
<path fill-rule="evenodd" clip-rule="evenodd" d="M43.4786 24.8258L37.2736 28.0485L34.6533 17.9501L43.4786 24.8258Z" stroke="white" stroke-width="0.740604" stroke-linecap="round" stroke-linejoin="round"/>
<path fill-rule="evenodd" clip-rule="evenodd" d="M51.2809 28.3088L55.6036 31.0945L53.4655 33.2803L47.5962 29.7967L51.2809 28.3088Z" stroke="white" stroke-width="0.740604" stroke-linecap="round" stroke-linejoin="round"/>
<path fill-rule="evenodd" clip-rule="evenodd" d="M47.6113 29.805L37.2734 28.0485L43.4785 24.8259L49.3445 24.9913L51.3034 28.3186L47.6113 29.805Z" stroke="white" stroke-width="0.740604" stroke-linecap="round" stroke-linejoin="round"/>
<path fill-rule="evenodd" clip-rule="evenodd" d="M29.3937 41.348L21.1797 46.3821L28.3073 38.9449L29.3937 41.348Z" stroke="white" stroke-width="0.740604" stroke-linecap="round" stroke-linejoin="round"/>
<path fill-rule="evenodd" clip-rule="evenodd" d="M21.1797 46.3821L22.7693 40.3059L28.3073 38.9449L21.1797 46.3821Z" stroke="white" stroke-width="0.740604" stroke-linecap="round" stroke-linejoin="round"/>
<path fill-rule="evenodd" clip-rule="evenodd" d="M29.3936 41.3484L28.3071 38.9454L33.6708 35.881L29.3936 41.3484Z" stroke="white" stroke-width="0.740604" stroke-linecap="round" stroke-linejoin="round"/>
<path fill-rule="evenodd" clip-rule="evenodd" d="M28.307 38.9454L22.769 40.3064L28.6129 26.6946L28.307 38.9454Z" stroke="white" stroke-width="0.740604" stroke-linecap="round" stroke-linejoin="round"/>
<path fill-rule="evenodd" clip-rule="evenodd" d="M28.3071 38.9455L28.4572 32.859L33.6708 35.8812L28.3071 38.9455Z" stroke="white" stroke-width="0.740604" stroke-linecap="round" stroke-linejoin="round"/>
<path fill-rule="evenodd" clip-rule="evenodd" d="M22.7693 40.3064L21.6187 29.7444L28.6132 26.6946L22.7693 40.3064Z" stroke="white" stroke-width="0.740604" stroke-linecap="round" stroke-linejoin="round"/>
<path fill-rule="evenodd" clip-rule="evenodd" d="M28.6132 26.6946L22.6797 21.288L34.6535 17.9501L28.6132 26.6946Z" stroke="white" stroke-width="0.740604" stroke-linecap="round" stroke-linejoin="round"/>
<path fill-rule="evenodd" clip-rule="evenodd" d="M41.9487 33.9746L33.9927 34.7854L34.7594 32.2969L37.2736 28.0486L47.6114 29.805L41.9487 33.9746Z" stroke="white" stroke-width="0.740604" stroke-linecap="round" stroke-linejoin="round"/>
<path fill-rule="evenodd" clip-rule="evenodd" d="M28.613 26.6949L15.9971 27.748L22.6795 21.2882L28.613 26.6949Z" stroke="white" stroke-width="0.740604" stroke-linecap="round" stroke-linejoin="round"/>
<path fill-rule="evenodd" clip-rule="evenodd" d="M41.9487 33.9744L47.6114 29.8048L53.4977 33.2669L41.9487 33.9744Z" stroke="white" stroke-width="0.740604" stroke-linecap="round" stroke-linejoin="round"/>
<path fill-rule="evenodd" clip-rule="evenodd" d="M28.6128 26.6946L34.7403 32.3424L33.6706 35.881L28.457 32.8589L28.6128 26.6946Z" stroke="white" stroke-width="0.740604" stroke-linecap="round" stroke-linejoin="round"/>
<path fill-rule="evenodd" clip-rule="evenodd" d="M34.6532 17.9501L37.2734 28.0485L34.7403 32.3425L28.6128 26.6946L34.6532 17.9501Z" stroke="white" stroke-width="0.740604" stroke-linecap="round" stroke-linejoin="round"/>
<mask id="mask0_2592_987" style="mask-type:alpha" maskUnits="userSpaceOnUse" x="-7" y="5" width="58" height="41">
<path d="M13.4915 13.5775L14.911 8.12168L15.0468 8.08465L28.2666 15.071L43.2638 34.265L41.9677 34.3391L34.3025 35.129L33.9445 36.1412L30.2168 40.8811C31.447 42.1278 33.9519 44.5792 34.3765 44.6582C34.9073 44.7569 44.2513 45.6456 44.5105 45.7444C44.7178 45.8234 48.6373 39.5809 50.5711 36.4498L50.1761 27.8958C42.7001 21.4402 27.5605 8.44261 26.81 8.09699C25.8719 7.66497 11.9486 5.61597 9.80082 5.61597C7.65307 5.61597 -5.69015 7.10952 -6.39372 7.88715C-7.0973 8.66479 -5.46797 14.0218 -5.43094 14.4785C-5.39391 14.9352 5.46829 28.5747 5.75219 28.8216C5.97931 29.0191 16.4992 32.7673 21.8356 35.1537L21.1568 29.0931L5.11033 15.0957L13.4915 13.5775Z" fill="#C4C4C4"/>
</mask>
<g mask="url(#mask0_2592_987)">
<path fill-rule="evenodd" clip-rule="evenodd" d="M25.7525 20.4245C38.322 29.3784 45.4641 38.5683 41.4288 40.0532C37.8981 41.3522 27.6926 36.4161 18.6552 29.978C9.61493 23.5377 1.6816 15.5508 1.85685 11.863C2.05706 7.64997 13.1726 11.4631 25.7525 20.4245Z" stroke="#27F09E" stroke-width="3.55144" stroke-linecap="round" stroke-linejoin="round"/>
</g>
</g>
<defs>
<clipPath id="clip0_2592_987">
<rect width="67" height="46.7815" fill="white"/>
</clipPath>
</defs>
</svg>
